<svg xmlns="http://www.w3.org/2000/svg" viewBox="0 0 105.99 120.74">
    <path fill="currentColor"
          d="M51.67,16.79l-2.5.25a29.61,29.61,0,0,0-14.44,5.82l-.91.73a37.77,37.77,0,0,0-5.35,5.69A34.92,34.92,0,0,0,25,35.67a9.07,9.07,0,0,1-.43,1.19,30.54,30.54,0,0,0-1.15,15.42c.14.64.33,1.54.41,2a28.9,28.9,0,0,0,3.28,7.92C33.8,73.42,47.72,79.33,59.86,76.09c.86-.23,1.86-.48,2.22-.56a32.88,32.88,0,0,0,7.25-3.38,34.17,34.17,0,0,0,7-6.29,31.83,31.83,0,0,0,2.31-3.22,6.17,6.17,0,0,1,.56-1,8.44,8.44,0,0,0,.68-1.26c.23-.73,2.15,2.26,3,4.59,1.21,3.54.73,6.11-1.61,8.57s-3.69,3.9-5.43,5.79c-1,1.05-2,2.18-2.33,2.51l-2.42,2.57c-1,1.09-2,2.22-2.33,2.51l-2.5,2.67c-3.43,3.7-10.75,11.53-12.46,13.33l-.79.84-.71-.75-2.62-2.82c-1.06-1.14-2.14-2.31-2.42-2.6-1.43-1.51-2.64-2.8-3.76-4C36.54,86.13,30.8,80,29.75,78.86S25.14,74,21.58,70.11c-1.1-1.18-2.22-2.39-2.5-2.67l-2.33-2.51-2.42-2.57C14,62,13,60.9,12,59.86L9.07,56.7,6.73,54.2C2.49,49.65.43,47.53.23,47.53S0,49.36,0,58.89V70.26l1,1c1.12,1.16,1.5,1.56,4,4.21l2.24,2.4,1.32,1.43c.5.55,1.48,1.6,2.17,2.33s2.88,3.06,4.85,5.17l4.59,4.92,2.49,2.66L25.08,97c.56.59,3,3.22,5.43,5.83,17.62,19,21.77,21,29.76,14.55,3-2.41,5-4.34,11.57-10.88,4.29-4.28,4.93-5,8.66-9,1-1,2-2.17,2.33-2.5s1.41-1.49,2.42-2.58l3.1-3.32,5.06-5.43c2.09-2.25,4.3-4.62,4.91-5.26l2.93-3.14,3.29-3.49L106,70.28V58.9c0-9.32,0-11.37-.21-11.37a69.91,69.91,0,0,0-6,6.14C93.53,60.48,87,54.75,81.69,37.74c-3.44-11-13.19-19.31-24.19-20.62a39.87,39.87,0,0,0-5.83-.33m5.06,15.32a15.18,15.18,0,0,1,3.92,27.77,17.42,17.42,0,0,1-4.82,1.81c-.81,0-.83.13-.83,4.46v4H51V61.87l-.46-.1a15.36,15.36,0,0,1-5.21-1.93C34,53.18,36,36.48,48.59,32.3a18.76,18.76,0,0,1,8.14-.19"/>
    <path fill="currentColor" opacity="0.5" d="M50.33.44a5.81,5.81,0,0,0,2.67,11c6.16,0,8-8.24,2.53-11.06a9,9,0,0,0-5.2.11M36.88,5.53a5.81,5.81,0,0,0-3.09,9.78,5.88,5.88,0,0,0,9.42-1.58c1.89-4.26-1.85-9.11-6.33-8.2m30.18,0C60.11,7,61,17,68.08,17c7.4,0,7.86-10.68.5-11.47a5.85,5.85,0,0,0-1.52,0M50.87,37.28a9.79,9.79,0,0,0-5.71,15.28c5.62,7.62,17.68,3.53,17.56-6a9.71,9.71,0,0,0-11.85-9.33"/>
</svg>